# Blender 3.4.1
# www.blender.org
mtllib farm-46-chicken_white.mtl
o chicken_white
v -0.100000 -0.200000 -0.000000
v -0.100000 -0.200000 -0.100000
v -0.100000 -0.100000 0.100000
v -0.100000 -0.100000 -0.000000
v -0.100000 -0.100000 -0.100000
v -0.100000 -0.100000 -0.200000
v -0.100000 -0.000000 0.200000
v -0.100000 -0.000000 0.100000
v -0.100000 0.100000 0.200000
v -0.100000 0.100000 0.100000
v -0.100000 0.100000 -0.100000
v -0.100000 0.100000 -0.200000
v -0.100000 0.200000 0.100000
v -0.100000 0.200000 -0.100000
v 0.100000 -0.200000 -0.000000
v 0.100000 -0.200000 -0.100000
v 0.100000 -0.100000 0.100000
v 0.100000 -0.100000 -0.000000
v 0.100000 -0.100000 -0.100000
v 0.100000 -0.100000 -0.200000
v 0.100000 -0.000000 0.200000
v 0.100000 -0.000000 0.100000
v 0.100000 0.100000 0.200000
v 0.100000 0.100000 0.100000
v 0.100000 0.100000 -0.100000
v 0.100000 0.100000 -0.200000
v 0.100000 0.200000 0.100000
v 0.100000 0.200000 -0.100000
v -0.100000 -0.000000 0.200000
v -0.100000 0.100000 0.200000
v 0.100000 -0.000000 0.200000
v 0.100000 0.100000 0.200000
v -0.100000 -0.100000 0.100000
v -0.100000 -0.000000 0.100000
v -0.100000 0.100000 0.100000
v -0.100000 0.200000 0.100000
v 0.100000 -0.100000 0.100000
v 0.100000 -0.000000 0.100000
v 0.100000 0.100000 0.100000
v 0.100000 0.200000 0.100000
v -0.100000 -0.200000 -0.000000
v -0.100000 -0.100000 -0.000000
v 0.100000 -0.200000 -0.000000
v 0.100000 -0.100000 -0.000000
v -0.100000 -0.200000 -0.100000
v -0.100000 -0.100000 -0.100000
v -0.100000 0.100000 -0.100000
v -0.100000 0.200000 -0.100000
v 0.100000 -0.200000 -0.100000
v 0.100000 -0.100000 -0.100000
v 0.100000 0.100000 -0.100000
v 0.100000 0.200000 -0.100000
v -0.100000 -0.100000 -0.200000
v -0.100000 0.100000 -0.200000
v 0.100000 -0.100000 -0.200000
v 0.100000 0.100000 -0.200000
v -0.100000 -0.200000 -0.000000
v 0.100000 -0.200000 -0.000000
v -0.100000 -0.200000 -0.100000
v 0.100000 -0.200000 -0.100000
v -0.100000 -0.100000 0.100000
v 0.100000 -0.100000 0.100000
v -0.100000 -0.100000 -0.000000
v 0.100000 -0.100000 -0.000000
v -0.100000 -0.100000 -0.100000
v 0.100000 -0.100000 -0.100000
v -0.100000 -0.100000 -0.200000
v 0.100000 -0.100000 -0.200000
v -0.100000 -0.000000 0.200000
v 0.100000 -0.000000 0.200000
v -0.100000 -0.000000 0.100000
v 0.100000 -0.000000 0.100000
v -0.100000 0.100000 0.200000
v 0.100000 0.100000 0.200000
v -0.100000 0.100000 0.100000
v 0.100000 0.100000 0.100000
v -0.100000 0.100000 -0.100000
v 0.100000 0.100000 -0.100000
v -0.100000 0.100000 -0.200000
v 0.100000 0.100000 -0.200000
v -0.100000 0.200000 0.100000
v 0.100000 0.200000 0.100000
v -0.100000 0.200000 -0.100000
v 0.100000 0.200000 -0.100000
vn -1.0000 -0.0000 -0.0000
vn 1.0000 -0.0000 -0.0000
vn -0.0000 -0.0000 1.0000
vn -0.0000 -0.0000 -1.0000
vn -0.0000 -1.0000 -0.0000
vn -0.0000 1.0000 -0.0000
vt 0.279297 0.500000
vt 0.279297 0.500000
vt 0.962891 0.500000
vt 0.279297 0.500000
vt 0.962891 0.500000
vt 0.279297 0.500000
vt 0.962891 0.500000
vt 0.962891 0.500000
vt 0.423828 0.500000
vt 0.962891 0.500000
vt 0.423828 0.500000
vt 0.423828 0.500000
vt 0.423828 0.500000
vt 0.962891 0.500000
vt 0.962891 0.500000
vt 0.962891 0.500000
vt 0.962891 0.500000
vt 0.962891 0.500000
vt 0.279297 0.500000
vt 0.279297 0.500000
vt 0.962891 0.500000
vt 0.279297 0.500000
vt 0.962891 0.500000
vt 0.279297 0.500000
vt 0.962891 0.500000
vt 0.962891 0.500000
vt 0.423828 0.500000
vt 0.962891 0.500000
vt 0.423828 0.500000
vt 0.423828 0.500000
vt 0.423828 0.500000
vt 0.962891 0.500000
vt 0.962891 0.500000
vt 0.962891 0.500000
vt 0.962891 0.500000
vt 0.962891 0.500000
vt 0.423828 0.500000
vt 0.423828 0.500000
vt 0.423828 0.500000
vt 0.423828 0.500000
vt 0.962891 0.500000
vt 0.962891 0.500000
vt 0.962891 0.500000
vt 0.962891 0.500000
vt 0.962891 0.500000
vt 0.962891 0.500000
vt 0.962891 0.500000
vt 0.962891 0.500000
vt 0.279297 0.500000
vt 0.279297 0.500000
vt 0.279297 0.500000
vt 0.279297 0.500000
vt 0.279297 0.500000
vt 0.279297 0.500000
vt 0.962891 0.500000
vt 0.962891 0.500000
vt 0.279297 0.500000
vt 0.279297 0.500000
vt 0.962891 0.500000
vt 0.962891 0.500000
vt 0.962891 0.500000
vt 0.962891 0.500000
vt 0.962891 0.500000
vt 0.962891 0.500000
vt 0.279297 0.500000
vt 0.279297 0.500000
vt 0.279297 0.500000
vt 0.279297 0.500000
vt 0.962891 0.500000
vt 0.962891 0.500000
vt 0.962891 0.500000
vt 0.962891 0.500000
vt 0.962891 0.500000
vt 0.962891 0.500000
vt 0.962891 0.500000
vt 0.962891 0.500000
vt 0.423828 0.500000
vt 0.423828 0.500000
vt 0.423828 0.500000
vt 0.423828 0.500000
vt 0.423828 0.500000
vt 0.423828 0.500000
vt 0.423828 0.500000
vt 0.423828 0.500000
vt 0.962891 0.500000
vt 0.962891 0.500000
vt 0.962891 0.500000
vt 0.962891 0.500000
vt 0.962891 0.500000
vt 0.962891 0.500000
vt 0.962891 0.500000
vt 0.962891 0.500000
s 0
usemtl palette.002
f 4/4/1 2/2/1 1/1/1
f 5/6/1 2/2/1 4/4/1
f 8/10/1 4/5/1 3/3/1
f 8/10/1 6/8/1 5/7/1
f 8/10/1 5/7/1 4/5/1
f 9/12/1 8/11/1 7/9/1
f 10/14/1 6/8/1 8/10/1
f 10/13/1 8/11/1 9/12/1
f 11/15/1 6/8/1 10/14/1
f 12/16/1 6/8/1 11/15/1
f 13/17/1 11/15/1 10/14/1
f 14/18/1 11/15/1 13/17/1
f 15/19/2 16/20/2 18/22/2
f 18/22/2 16/20/2 19/24/2
f 17/21/2 18/23/2 22/28/2
f 19/25/2 20/26/2 22/28/2
f 18/23/2 19/25/2 22/28/2
f 21/27/2 22/29/2 23/30/2
f 22/28/2 20/26/2 24/32/2
f 23/30/2 22/29/2 24/31/2
f 24/32/2 20/26/2 25/33/2
f 25/33/2 20/26/2 26/34/2
f 24/32/2 25/33/2 27/35/2
f 27/35/2 25/33/2 28/36/2
f 31/39/3 30/38/3 29/37/3
f 32/40/3 30/38/3 31/39/3
f 37/45/3 34/42/3 33/41/3
f 38/46/3 34/42/3 37/45/3
f 39/47/3 36/44/3 35/43/3
f 40/48/3 36/44/3 39/47/3
f 43/51/3 42/50/3 41/49/3
f 44/52/3 42/50/3 43/51/3
f 45/53/4 46/54/4 49/57/4
f 49/57/4 46/54/4 50/58/4
f 47/55/4 48/56/4 51/59/4
f 51/59/4 48/56/4 52/60/4
f 53/61/4 54/62/4 55/63/4
f 55/63/4 54/62/4 56/64/4
f 59/67/5 58/66/5 57/65/5
f 60/68/5 58/66/5 59/67/5
f 63/71/5 62/70/5 61/69/5
f 64/72/5 62/70/5 63/71/5
f 67/75/5 66/74/5 65/73/5
f 68/76/5 66/74/5 67/75/5
f 71/79/5 70/78/5 69/77/5
f 72/80/5 70/78/5 71/79/5
f 73/81/6 74/82/6 75/83/6
f 75/83/6 74/82/6 76/84/6
f 77/85/6 78/86/6 79/87/6
f 79/87/6 78/86/6 80/88/6
f 81/89/6 82/90/6 83/91/6
f 83/91/6 82/90/6 84/92/6
