# MagicaVoxel @ Ephtracy

# group
o 

# material
mtllib droopy_yellow.mtl
usemtl palette

# normals
vn -1 0 0
vn 1 0 0
vn 0 0 1
vn 0 0 -1
vn 0 -1 0
vn 0 1 0

# texcoords
vt 0.0371094 0.5
vt 0.162109 0.5

# verts
v -0.2 0.4 7.45058e-009
v -0.2 0.4 -0.1
v -0.2 0.5 7.45058e-009
v -0.2 0.5 -0.1
v -0.1 0.5 7.45058e-009
v -0.1 0.5 -0.1
v -0.1 0.6 7.45058e-009
v -0.1 0.6 -0.1
v 0 0 7.45058e-009
v 0 0 -0.1
v 0 0.5 7.45058e-009
v 0 0.5 -0.1
v 0.2 0.3 7.45058e-009
v 0.2 0.3 -0.1
v 0.2 0.4 7.45058e-009
v 0.2 0.4 -0.1
v -0.1 0.4 7.45058e-009
v -0.1 0.4 -0.1
v -0.1 0.5 7.45058e-009
v -0.1 0.5 -0.1
v 0 0.5 7.45058e-009
v 0 0.5 -0.1
v 0 0.6 7.45058e-009
v 0 0.6 -0.1
v 0.1 0 7.45058e-009
v 0.1 0 -0.1
v 0.1 0.4 7.45058e-009
v 0.1 0.4 -0.1
v 0.2 0.4 7.45058e-009
v 0.2 0.4 -0.1
v 0.2 0.5 7.45058e-009
v 0.2 0.5 -0.1
v 0.3 0.3 7.45058e-009
v 0.3 0.3 -0.1
v 0.3 0.4 7.45058e-009
v 0.3 0.4 -0.1
v -0.2 0.4 7.45058e-009
v -0.2 0.5 7.45058e-009
v -0.1 0.4 7.45058e-009
v -0.1 0.5 7.45058e-009
v -0.1 0.6 7.45058e-009
v 0 0 7.45058e-009
v 0 0.5 7.45058e-009
v 0 0.6 7.45058e-009
v 0.1 0 7.45058e-009
v 0.1 0.4 7.45058e-009
v 0.2 0.3 7.45058e-009
v 0.2 0.4 7.45058e-009
v 0.2 0.5 7.45058e-009
v 0.3 0.3 7.45058e-009
v 0.3 0.4 7.45058e-009
v -0.2 0.4 -0.1
v -0.2 0.5 -0.1
v -0.1 0.4 -0.1
v -0.1 0.5 -0.1
v -0.1 0.6 -0.1
v 0 0 -0.1
v 0 0.5 -0.1
v 0 0.6 -0.1
v 0.1 0 -0.1
v 0.1 0.4 -0.1
v 0.2 0.3 -0.1
v 0.2 0.4 -0.1
v 0.2 0.5 -0.1
v 0.3 0.3 -0.1
v 0.3 0.4 -0.1
v 0 0 7.45058e-009
v 0.1 0 7.45058e-009
v 0 0 -0.1
v 0.1 0 -0.1
v 0.2 0.3 7.45058e-009
v 0.3 0.3 7.45058e-009
v 0.2 0.3 -0.1
v 0.3 0.3 -0.1
v -0.2 0.4 7.45058e-009
v -0.1 0.4 7.45058e-009
v 0.1 0.4 7.45058e-009
v 0.2 0.4 7.45058e-009
v -0.2 0.4 -0.1
v -0.1 0.4 -0.1
v 0.1 0.4 -0.1
v 0.2 0.4 -0.1
v -0.1 0.5 7.45058e-009
v 0 0.5 7.45058e-009
v -0.1 0.5 -0.1
v 0 0.5 -0.1
v 0.2 0.4 7.45058e-009
v 0.3 0.4 7.45058e-009
v 0.2 0.4 -0.1
v 0.3 0.4 -0.1
v -0.2 0.5 7.45058e-009
v -0.1 0.5 7.45058e-009
v 0 0.5 7.45058e-009
v 0.2 0.5 7.45058e-009
v -0.2 0.5 -0.1
v -0.1 0.5 -0.1
v 0 0.5 -0.1
v 0.2 0.5 -0.1
v -0.1 0.6 7.45058e-009
v 0 0.6 7.45058e-009
v -0.1 0.6 -0.1
v 0 0.6 -0.1

# faces
f 3/2/1 2/2/1 1/2/1
f 4/2/1 2/2/1 3/2/1
f 7/1/1 6/1/1 5/1/1
f 8/1/1 6/1/1 7/1/1
f 11/1/1 10/1/1 9/1/1
f 12/1/1 10/1/1 11/1/1
f 15/2/1 14/2/1 13/2/1
f 16/2/1 14/2/1 15/2/1
f 17/2/2 18/2/2 19/2/2
f 19/2/2 18/2/2 20/2/2
f 21/1/2 22/1/2 23/1/2
f 23/1/2 22/1/2 24/1/2
f 25/1/2 26/1/2 27/1/2
f 27/1/2 26/1/2 28/1/2
f 29/1/2 30/1/2 31/1/2
f 31/1/2 30/1/2 32/1/2
f 33/2/2 34/2/2 35/2/2
f 35/2/2 34/2/2 36/2/2
f 39/2/3 38/2/3 37/2/3
f 40/2/3 38/2/3 39/2/3
f 43/1/3 41/1/3 40/1/3
f 44/1/3 41/1/3 43/1/3
f 45/1/3 43/1/3 42/1/3
f 46/1/3 43/1/3 45/1/3
f 48/1/3 43/1/3 46/1/3
f 49/1/3 43/1/3 48/1/3
f 50/2/3 48/2/3 47/2/3
f 51/2/3 48/2/3 50/2/3
f 52/2/4 53/2/4 54/2/4
f 54/2/4 53/2/4 55/2/4
f 55/1/4 56/1/4 58/1/4
f 58/1/4 56/1/4 59/1/4
f 57/1/4 58/1/4 60/1/4
f 60/1/4 58/1/4 61/1/4
f 61/1/4 58/1/4 63/1/4
f 63/1/4 58/1/4 64/1/4
f 62/2/4 63/2/4 65/2/4
f 65/2/4 63/2/4 66/2/4
f 69/1/5 68/1/5 67/1/5
f 70/1/5 68/1/5 69/1/5
f 73/2/5 72/2/5 71/2/5
f 74/2/5 72/2/5 73/2/5
f 79/2/5 76/2/5 75/2/5
f 80/2/5 76/2/5 79/2/5
f 81/1/5 78/1/5 77/1/5
f 82/1/5 78/1/5 81/1/5
f 85/1/5 84/1/5 83/1/5
f 86/1/5 84/1/5 85/1/5
f 87/2/6 88/2/6 89/2/6
f 89/2/6 88/2/6 90/2/6
f 91/2/6 92/2/6 95/2/6
f 95/2/6 92/2/6 96/2/6
f 93/1/6 94/1/6 97/1/6
f 97/1/6 94/1/6 98/1/6
f 99/1/6 100/1/6 101/1/6
f 101/1/6 100/1/6 102/1/6
