# Blender 3.4.1
# www.blender.org
mtllib fence_middle.mtl
o Untitled.001
v -0.100588 -0.631765 0.785882
v -0.100588 -0.631765 0.385882
v -0.100588 -0.631765 0.085882
v -0.100588 -0.631765 -0.214118
v -0.100588 -0.631765 -0.314118
v -0.100588 -0.631765 -0.614118
v -0.100588 -0.631765 -0.814118
v -0.100588 -0.531765 0.385882
v -0.100588 -0.531765 0.285882
v -0.100588 -0.531765 0.185882
v -0.100588 -0.531765 0.085882
v -0.100588 -0.531765 -0.314118
v -0.100588 -0.531765 -0.414118
v -0.100588 -0.431765 0.785882
v -0.100588 -0.431765 0.585882
v -0.100588 -0.431765 0.285882
v -0.100588 -0.431765 0.185882
v -0.100588 -0.431765 -0.614118
v -0.100588 -0.431765 -0.814118
v -0.100588 -0.331765 0.685882
v -0.100588 -0.331765 0.585882
v -0.100588 -0.331765 -0.214118
v -0.100588 -0.331765 -0.414118
v -0.100588 -0.231765 0.785882
v -0.100588 -0.231765 0.685882
v -0.100588 -0.231765 -0.814118
v -0.100588 0.368235 0.785882
v -0.100588 0.368235 0.685882
v -0.100588 0.368235 -0.814118
v -0.100588 0.468235 0.685882
v -0.100588 0.468235 0.585882
v -0.100588 0.468235 -0.114118
v -0.100588 0.468235 -0.214118
v -0.100588 0.568235 0.785882
v -0.100588 0.568235 0.585882
v -0.100588 0.568235 0.085882
v -0.100588 0.568235 -0.114118
v -0.100588 0.568235 -0.214118
v -0.100588 0.568235 -0.314118
v -0.100588 0.668235 0.785882
v -0.100588 0.668235 0.085882
v -0.100588 0.668235 -0.314118
v -0.100588 0.668235 -0.814118
v 0.099412 -0.631765 0.785882
v 0.099412 -0.631765 -0.214118
v 0.099412 -0.631765 -0.614118
v 0.099412 -0.631765 -0.814118
v 0.099412 -0.531765 0.485882
v 0.099412 -0.531765 0.185882
v 0.099412 -0.531765 -0.214118
v 0.099412 -0.531765 -0.314118
v 0.099412 -0.531765 -0.414118
v 0.099412 -0.531765 -0.614118
v 0.099412 -0.431765 0.285882
v 0.099412 -0.431765 0.185882
v 0.099412 -0.431765 -0.314118
v 0.099412 -0.431765 -0.414118
v 0.099412 -0.331765 0.485882
v 0.099412 -0.331765 0.285882
v 0.099412 -0.331765 -0.014118
v 0.099412 -0.331765 -0.614118
v 0.099412 -0.231765 0.785882
v 0.099412 -0.231765 -0.014118
v 0.099412 -0.231765 -0.614118
v 0.099412 -0.231765 -0.814118
v 0.099412 0.368235 0.785882
v 0.099412 0.368235 0.285882
v 0.099412 0.368235 0.185882
v 0.099412 0.368235 -0.114118
v 0.099412 0.368235 -0.214118
v 0.099412 0.368235 -0.514118
v 0.099412 0.368235 -0.614118
v 0.099412 0.368235 -0.814118
v 0.099412 0.468235 0.385882
v 0.099412 0.468235 0.285882
v 0.099412 0.468235 -0.414118
v 0.099412 0.468235 -0.514118
v 0.099412 0.568235 0.385882
v 0.099412 0.568235 0.285882
v 0.099412 0.568235 -0.114118
v 0.099412 0.568235 -0.214118
v 0.099412 0.568235 -0.414118
v 0.099412 0.568235 -0.614118
v 0.099412 0.668235 0.785882
v 0.099412 0.668235 0.285882
v 0.099412 0.668235 0.185882
v 0.099412 0.668235 -0.814118
v -0.100588 -0.631765 0.785882
v -0.100588 -0.431765 0.785882
v -0.100588 -0.231765 0.785882
v -0.100588 0.368235 0.785882
v -0.100588 0.568235 0.785882
v -0.100588 0.668235 0.785882
v -0.000588 -0.431765 0.785882
v -0.000588 -0.231765 0.785882
v -0.000588 0.368235 0.785882
v -0.000588 0.568235 0.785882
v 0.099412 -0.631765 0.785882
v 0.099412 -0.231765 0.785882
v 0.099412 0.368235 0.785882
v 0.099412 0.668235 0.785882
v -0.100588 -0.631765 -0.814118
v -0.100588 -0.431765 -0.814118
v -0.100588 -0.231765 -0.814118
v -0.100588 0.368235 -0.814118
v -0.100588 0.668235 -0.814118
v -0.000588 -0.631765 -0.814118
v -0.000588 -0.431765 -0.814118
v 0.099412 -0.631765 -0.814118
v 0.099412 -0.231765 -0.814118
v 0.099412 0.368235 -0.814118
v 0.099412 0.668235 -0.814118
v -0.100588 -0.631765 0.785882
v 0.099412 -0.631765 0.785882
v -0.100588 -0.631765 0.385882
v -0.000588 -0.631765 0.385882
v -0.100588 -0.631765 0.085882
v -0.000588 -0.631765 0.085882
v -0.100588 -0.631765 -0.214118
v 0.099412 -0.631765 -0.214118
v -0.100588 -0.631765 -0.314118
v -0.000588 -0.631765 -0.314118
v -0.100588 -0.631765 -0.614118
v -0.000588 -0.631765 -0.614118
v 0.099412 -0.631765 -0.614118
v -0.100588 -0.631765 -0.814118
v -0.000588 -0.631765 -0.814118
v 0.099412 -0.631765 -0.814118
v -0.100588 0.368235 0.785882
v -0.000588 0.368235 0.785882
v 0.099412 0.368235 0.785882
v -0.100588 0.368235 0.685882
v -0.000588 0.368235 0.685882
v -0.000588 0.368235 0.285882
v 0.099412 0.368235 0.285882
v -0.000588 0.368235 0.185882
v 0.099412 0.368235 0.185882
v -0.000588 0.368235 -0.114118
v 0.099412 0.368235 -0.114118
v -0.000588 0.368235 -0.214118
v 0.099412 0.368235 -0.214118
v -0.000588 0.368235 -0.514118
v 0.099412 0.368235 -0.514118
v -0.000588 0.368235 -0.614118
v 0.099412 0.368235 -0.614118
v -0.100588 0.368235 -0.814118
v 0.099412 0.368235 -0.814118
v -0.100588 -0.231765 0.785882
v -0.000588 -0.231765 0.785882
v 0.099412 -0.231765 0.785882
v -0.100588 -0.231765 0.685882
v -0.000588 -0.231765 0.685882
v -0.000588 -0.231765 -0.014118
v 0.099412 -0.231765 -0.014118
v -0.000588 -0.231765 -0.614118
v 0.099412 -0.231765 -0.614118
v -0.100588 -0.231765 -0.814118
v 0.099412 -0.231765 -0.814118
v -0.100588 0.668235 0.785882
v 0.099412 0.668235 0.785882
v -0.000588 0.668235 0.285882
v 0.099412 0.668235 0.285882
v -0.000588 0.668235 0.185882
v 0.099412 0.668235 0.185882
v -0.100588 0.668235 0.085882
v -0.000588 0.668235 0.085882
v -0.100588 0.668235 -0.314118
v -0.000588 0.668235 -0.314118
v -0.100588 0.668235 -0.814118
v 0.099412 0.668235 -0.814118
vn -1.0000 -0.0000 -0.0000
vn 1.0000 -0.0000 -0.0000
vn -0.0000 -0.0000 1.0000
vn -0.0000 -0.0000 -1.0000
vn -0.0000 -1.0000 -0.0000
vn -0.0000 1.0000 -0.0000
vt 0.533203 0.500000
vt 0.533203 0.500000
vt 0.537109 0.500000
vt 0.533203 0.500000
vt 0.537109 0.500000
vt 0.533203 0.500000
vt 0.537109 0.500000
vt 0.533203 0.500000
vt 0.537109 0.500000
vt 0.537109 0.500000
vt 0.533203 0.500000
vt 0.537109 0.500000
vt 0.537109 0.500000
vt 0.533203 0.500000
vt 0.537109 0.500000
vt 0.533203 0.500000
vt 0.533203 0.500000
vt 0.537109 0.500000
vt 0.537109 0.500000
vt 0.533203 0.500000
vt 0.533203 0.500000
vt 0.537109 0.500000
vt 0.533203 0.500000
vt 0.537109 0.500000
vt 0.533203 0.500000
vt 0.537109 0.500000
vt 0.533203 0.500000
vt 0.537109 0.500000
vt 0.537109 0.500000
vt 0.533203 0.500000
vt 0.537109 0.500000
vt 0.533203 0.500000
vt 0.537109 0.500000
vt 0.533203 0.500000
vt 0.537109 0.500000
vt 0.533203 0.500000
vt 0.533203 0.500000
vt 0.537109 0.500000
vt 0.537109 0.500000
vt 0.533203 0.500000
vt 0.537109 0.500000
vt 0.533203 0.500000
vt 0.537109 0.500000
vt 0.533203 0.500000
vt 0.537109 0.500000
vt 0.537109 0.500000
vt 0.533203 0.500000
vt 0.533203 0.500000
vt 0.537109 0.500000
vt 0.537109 0.500000
vt 0.533203 0.500000
vt 0.533203 0.500000
vt 0.533203 0.500000
vt 0.537109 0.500000
vt 0.533203 0.500000
vt 0.537109 0.500000
vt 0.537109 0.500000
vt 0.533203 0.500000
vt 0.533203 0.500000
vt 0.537109 0.500000
vt 0.537109 0.500000
vt 0.533203 0.500000
vt 0.537109 0.500000
vt 0.533203 0.500000
vt 0.537109 0.500000
vt 0.533203 0.500000
vt 0.533203 0.500000
vt 0.537109 0.500000
vt 0.533203 0.500000
vt 0.537109 0.500000
vt 0.533203 0.500000
vt 0.537109 0.500000
vt 0.533203 0.500000
vt 0.533203 0.500000
vt 0.537109 0.500000
vt 0.537109 0.500000
vt 0.533203 0.500000
vt 0.533203 0.500000
vt 0.533203 0.500000
vt 0.537109 0.500000
vt 0.533203 0.500000
vt 0.533203 0.500000
vt 0.537109 0.500000
vt 0.533203 0.500000
vt 0.533203 0.500000
vt 0.537109 0.500000
vt 0.533203 0.500000
vt 0.537109 0.500000
vt 0.537109 0.500000
vt 0.533203 0.500000
vt 0.537109 0.500000
vt 0.533203 0.500000
vt 0.533203 0.500000
vt 0.537109 0.500000
vt 0.537109 0.500000
vt 0.533203 0.500000
vt 0.533203 0.500000
vt 0.537109 0.500000
vt 0.537109 0.500000
vt 0.533203 0.500000
vt 0.537109 0.500000
vt 0.533203 0.500000
vt 0.537109 0.500000
vt 0.533203 0.500000
vt 0.537109 0.500000
vt 0.533203 0.500000
vt 0.537109 0.500000
vt 0.533203 0.500000
vt 0.537109 0.500000
vt 0.533203 0.500000
vt 0.533203 0.500000
vt 0.537109 0.500000
vt 0.533203 0.500000
vt 0.533203 0.500000
vt 0.537109 0.500000
vt 0.537109 0.500000
vt 0.533203 0.500000
vt 0.533203 0.500000
vt 0.533203 0.500000
vt 0.537109 0.500000
vt 0.533203 0.500000
vt 0.537109 0.500000
vt 0.533203 0.500000
vt 0.533203 0.500000
vt 0.537109 0.500000
vt 0.533203 0.500000
vt 0.537109 0.500000
vt 0.537109 0.500000
vt 0.533203 0.500000
vt 0.533203 0.500000
vt 0.537109 0.500000
vt 0.533203 0.500000
vt 0.533203 0.500000
vt 0.537109 0.500000
vt 0.533203 0.500000
vt 0.537109 0.500000
vt 0.537109 0.500000
vt 0.533203 0.500000
vt 0.533203 0.500000
vt 0.537109 0.500000
vt 0.537109 0.500000
vt 0.533203 0.500000
vt 0.537109 0.500000
vt 0.533203 0.500000
vt 0.537109 0.500000
vt 0.533203 0.500000
vt 0.537109 0.500000
vt 0.533203 0.500000
vt 0.537109 0.500000
vt 0.533203 0.500000
vt 0.537109 0.500000
vt 0.533203 0.500000
vt 0.533203 0.500000
vt 0.533203 0.500000
vt 0.537109 0.500000
vt 0.537109 0.500000
vt 0.533203 0.500000
vt 0.533203 0.500000
vt 0.533203 0.500000
vt 0.533203 0.500000
vt 0.537109 0.500000
vt 0.537109 0.500000
vt 0.537109 0.500000
vt 0.533203 0.500000
vt 0.537109 0.500000
vt 0.533203 0.500000
vt 0.537109 0.500000
vt 0.533203 0.500000
vt 0.537109 0.500000
vt 0.533203 0.500000
vt 0.537109 0.500000
vt 0.533203 0.500000
vt 0.537109 0.500000
vt 0.533203 0.500000
vt 0.533203 0.500000
vt 0.533203 0.500000
vt 0.533203 0.500000
vt 0.533203 0.500000
vt 0.537109 0.500000
vt 0.533203 0.500000
vt 0.537109 0.500000
vt 0.533203 0.500000
vt 0.533203 0.500000
vt 0.533203 0.500000
vt 0.537109 0.500000
vt 0.533203 0.500000
vt 0.537109 0.500000
vt 0.533203 0.500000
vt 0.533203 0.500000
vt 0.533203 0.500000
vt 0.533203 0.500000
vt 0.533203 0.500000
vt 0.533203 0.500000
vt 0.533203 0.500000
vt 0.533203 0.500000
vt 0.537109 0.500000
vt 0.533203 0.500000
vt 0.537109 0.500000
vt 0.537109 0.500000
vt 0.533203 0.500000
vt 0.537109 0.500000
vt 0.533203 0.500000
vt 0.533203 0.500000
vt 0.537109 0.500000
vt 0.533203 0.500000
vt 0.537109 0.500000
vt 0.537109 0.500000
vt 0.533203 0.500000
vt 0.537109 0.500000
vt 0.533203 0.500000
vt 0.533203 0.500000
vt 0.537109 0.500000
vt 0.533203 0.500000
vt 0.537109 0.500000
vt 0.537109 0.500000
vt 0.533203 0.500000
vt 0.537109 0.500000
vt 0.537109 0.500000
vt 0.533203 0.500000
vt 0.533203 0.500000
vt 0.537109 0.500000
vt 0.533203 0.500000
vt 0.537109 0.500000
vt 0.533203 0.500000
vt 0.537109 0.500000
vt 0.533203 0.500000
vt 0.537109 0.500000
vt 0.533203 0.500000
vt 0.533203 0.500000
vt 0.537109 0.500000
vt 0.533203 0.500000
vt 0.537109 0.500000
vt 0.537109 0.500000
vt 0.533203 0.500000
vt 0.537109 0.500000
vt 0.533203 0.500000
vt 0.533203 0.500000
vt 0.537109 0.500000
vt 0.533203 0.500000
vt 0.537109 0.500000
vt 0.537109 0.500000
vt 0.533203 0.500000
vt 0.537109 0.500000
vt 0.533203 0.500000
vt 0.533203 0.500000
vt 0.537109 0.500000
vt 0.533203 0.500000
vt 0.537109 0.500000
vt 0.537109 0.500000
vt 0.533203 0.500000
vt 0.537109 0.500000
vt 0.533203 0.500000
vt 0.533203 0.500000
vt 0.533203 0.500000
vt 0.537109 0.500000
vt 0.533203 0.500000
vt 0.537109 0.500000
vt 0.533203 0.500000
vt 0.537109 0.500000
vt 0.533203 0.500000
vt 0.537109 0.500000
vt 0.533203 0.500000
vt 0.533203 0.500000
vt 0.537109 0.500000
vt 0.533203 0.500000
vt 0.537109 0.500000
vt 0.537109 0.500000
vt 0.533203 0.500000
vt 0.537109 0.500000
vt 0.533203 0.500000
vt 0.533203 0.500000
vt 0.533203 0.500000
vt 0.533203 0.500000
vt 0.533203 0.500000
vt 0.533203 0.500000
vt 0.537109 0.500000
vt 0.533203 0.500000
vt 0.537109 0.500000
vt 0.537109 0.500000
vt 0.533203 0.500000
vt 0.537109 0.500000
vt 0.533203 0.500000
vt 0.533203 0.500000
vt 0.537109 0.500000
vt 0.533203 0.500000
vt 0.537109 0.500000
vt 0.537109 0.500000
vt 0.533203 0.500000
vt 0.537109 0.500000
vt 0.533203 0.500000
vt 0.533203 0.500000
vt 0.533203 0.500000
s 0
usemtl palette.001
f 8/14/1 2/2/1 1/1/1
f 8/13/1 3/5/1 2/3/1
f 9/15/1 3/5/1 8/13/1
f 10/18/1 3/5/1 9/15/1
f 11/20/1 4/6/1 3/4/1
f 11/19/1 3/5/1 10/18/1
f 12/21/1 6/11/1 5/8/1
f 12/22/1 5/9/1 4/7/1
f 13/23/1 6/11/1 12/21/1
f 14/25/1 8/14/1 1/1/1
f 14/25/1 9/16/1 8/14/1
f 15/27/1 9/16/1 14/25/1
f 16/29/1 10/18/1 9/15/1
f 16/30/1 9/16/1 15/27/1
f 17/32/1 11/20/1 10/17/1
f 17/31/1 10/18/1 16/29/1
f 18/33/1 7/12/1 6/10/1
f 18/34/1 6/11/1 13/23/1
f 19/35/1 7/12/1 18/33/1
f 20/38/1 15/28/1 14/26/1
f 21/40/1 16/30/1 15/27/1
f 21/39/1 15/28/1 20/38/1
f 21/40/1 17/32/1 16/30/1
f 22/42/1 11/20/1 17/32/1
f 22/42/1 17/32/1 21/40/1
f 22/42/1 4/6/1 11/20/1
f 22/41/1 13/24/1 12/22/1
f 22/41/1 12/22/1 4/7/1
f 23/44/1 18/34/1 13/23/1
f 23/43/1 13/24/1 22/41/1
f 23/44/1 19/36/1 18/34/1
f 24/45/1 20/38/1 14/26/1
f 25/47/1 21/40/1 20/37/1
f 25/46/1 20/38/1 24/45/1
f 25/47/1 22/42/1 21/40/1
f 25/47/1 23/44/1 22/42/1
f 26/48/1 19/36/1 23/44/1
f 26/48/1 23/44/1 25/47/1
f 30/54/1 28/50/1 27/49/1
f 30/53/1 29/52/1 28/51/1
f 31/55/1 29/52/1 30/53/1
f 32/58/1 29/52/1 31/55/1
f 33/59/1 29/52/1 32/58/1
f 34/61/1 30/54/1 27/49/1
f 34/61/1 31/56/1 30/54/1
f 35/64/1 32/58/1 31/55/1
f 35/63/1 31/56/1 34/61/1
f 36/66/1 32/58/1 35/64/1
f 37/68/1 33/60/1 32/57/1
f 37/67/1 32/58/1 36/66/1
f 38/69/1 29/52/1 33/59/1
f 38/70/1 33/60/1 37/68/1
f 39/71/1 29/52/1 38/69/1
f 40/73/1 36/66/1 35/64/1
f 40/73/1 35/64/1 34/62/1
f 41/75/1 37/68/1 36/65/1
f 41/74/1 36/66/1 40/73/1
f 41/75/1 39/72/1 38/70/1
f 41/75/1 38/70/1 37/68/1
f 42/77/1 29/52/1 39/71/1
f 42/76/1 39/72/1 41/75/1
f 43/78/1 29/52/1 42/77/1
f 44/79/2 45/81/2 48/85/2
f 48/85/2 45/81/2 49/87/2
f 45/80/2 46/83/2 50/89/2
f 49/87/2 45/81/2 50/90/2
f 50/89/2 46/83/2 51/91/2
f 51/91/2 46/83/2 52/94/2
f 46/82/2 47/84/2 53/96/2
f 52/94/2 46/83/2 53/95/2
f 48/86/2 49/88/2 54/98/2
f 49/87/2 50/90/2 55/100/2
f 54/98/2 49/88/2 55/99/2
f 50/90/2 51/92/2 55/100/2
f 51/91/2 52/94/2 56/101/2
f 55/100/2 51/92/2 56/102/2
f 52/93/2 53/96/2 57/104/2
f 56/101/2 52/94/2 57/103/2
f 44/79/2 48/85/2 58/106/2
f 48/86/2 54/98/2 58/105/2
f 54/97/2 55/100/2 59/108/2
f 58/105/2 54/98/2 59/107/2
f 56/102/2 57/104/2 59/108/2
f 55/100/2 56/102/2 59/108/2
f 59/108/2 57/104/2 60/110/2
f 53/96/2 47/84/2 61/111/2
f 60/110/2 57/104/2 61/111/2
f 57/104/2 53/96/2 61/111/2
f 44/79/2 58/106/2 62/113/2
f 59/108/2 60/110/2 62/113/2
f 58/106/2 59/108/2 62/113/2
f 60/109/2 61/112/2 63/115/2
f 62/113/2 60/110/2 63/114/2
f 61/111/2 47/84/2 64/117/2
f 63/115/2 61/112/2 64/116/2
f 64/117/2 47/84/2 65/118/2
f 66/119/2 67/121/2 74/133/2
f 67/120/2 68/122/2 75/136/2
f 74/133/2 67/121/2 75/135/2
f 70/126/2 71/129/2 76/138/2
f 71/128/2 72/131/2 77/140/2
f 76/138/2 71/129/2 77/139/2
f 66/119/2 74/133/2 78/142/2
f 74/134/2 75/136/2 78/141/2
f 75/136/2 68/122/2 79/143/2
f 78/141/2 75/136/2 79/143/2
f 68/123/2 69/124/2 80/146/2
f 69/125/2 70/127/2 80/145/2
f 70/126/2 76/138/2 81/148/2
f 80/145/2 70/127/2 81/147/2
f 76/137/2 77/140/2 82/149/2
f 81/148/2 76/138/2 82/150/2
f 72/130/2 73/132/2 83/152/2
f 82/149/2 77/140/2 83/151/2
f 77/140/2 72/131/2 83/151/2
f 78/142/2 79/144/2 84/153/2
f 66/119/2 78/142/2 84/153/2
f 79/143/2 68/122/2 85/155/2
f 84/153/2 79/144/2 85/154/2
f 81/148/2 82/150/2 86/157/2
f 85/155/2 68/122/2 86/156/2
f 80/146/2 81/148/2 86/157/2
f 68/123/2 80/146/2 86/157/2
f 82/150/2 83/152/2 86/157/2
f 83/152/2 73/132/2 87/158/2
f 86/157/2 83/152/2 87/158/2
f 94/168/3 89/160/3 88/159/3
f 94/167/3 90/162/3 89/161/3
f 95/169/3 90/162/3 94/167/3
f 96/171/3 92/165/3 91/163/3
f 97/174/3 93/166/3 92/164/3
f 97/173/3 92/165/3 96/171/3
f 98/175/3 95/170/3 94/168/3
f 98/175/3 94/168/3 88/159/3
f 99/176/3 95/170/3 98/175/3
f 100/177/3 97/174/3 96/172/3
f 101/178/3 93/166/3 97/174/3
f 101/178/3 97/174/3 100/177/3
f 102/179/4 103/181/4 107/185/4
f 103/180/4 104/182/4 108/188/4
f 107/185/4 103/181/4 108/187/4
f 107/186/4 108/188/4 109/189/4
f 108/188/4 104/182/4 110/190/4
f 109/189/4 108/188/4 110/190/4
f 105/183/4 106/184/4 111/191/4
f 111/191/4 106/184/4 112/192/4
f 115/195/5 114/194/5 113/193/5
f 116/197/5 114/194/5 115/195/5
f 117/199/5 116/198/5 115/196/5
f 118/202/5 114/194/5 116/197/5
f 118/201/5 116/198/5 117/199/5
f 119/203/5 118/202/5 117/200/5
f 120/205/5 114/194/5 118/202/5
f 120/205/5 118/202/5 119/203/5
f 121/207/5 120/206/5 119/204/5
f 122/209/5 120/206/5 121/207/5
f 123/211/5 122/210/5 121/208/5
f 124/214/5 120/206/5 122/209/5
f 124/213/5 122/210/5 123/211/5
f 125/215/5 120/206/5 124/214/5
f 126/217/5 124/214/5 123/212/5
f 127/219/5 125/216/5 124/213/5
f 127/218/5 124/214/5 126/217/5
f 128/220/5 125/216/5 127/219/5
f 132/225/5 130/223/5 129/221/5
f 133/228/5 131/224/5 130/222/5
f 133/227/5 130/223/5 132/225/5
f 134/229/5 133/228/5 132/226/5
f 134/229/5 131/224/5 133/228/5
f 135/231/5 131/224/5 134/229/5
f 136/234/5 134/229/5 132/226/5
f 136/233/5 135/232/5 134/230/5
f 137/235/5 135/232/5 136/233/5
f 138/237/5 136/234/5 132/226/5
f 138/237/5 137/236/5 136/234/5
f 139/239/5 137/236/5 138/237/5
f 140/242/5 138/237/5 132/226/5
f 140/241/5 139/240/5 138/238/5
f 141/243/5 139/240/5 140/241/5
f 142/245/5 140/242/5 132/226/5
f 142/245/5 141/244/5 140/242/5
f 143/247/5 141/244/5 142/245/5
f 144/250/5 142/245/5 132/226/5
f 144/249/5 143/248/5 142/246/5
f 145/251/5 143/248/5 144/249/5
f 146/253/5 144/250/5 132/226/5
f 146/253/5 145/252/5 144/250/5
f 147/254/5 145/252/5 146/253/5
f 148/255/6 149/257/6 151/259/6
f 149/256/6 150/258/6 152/262/6
f 151/259/6 149/257/6 152/261/6
f 151/260/6 152/262/6 153/263/6
f 152/262/6 150/258/6 153/263/6
f 153/263/6 150/258/6 154/265/6
f 151/260/6 153/263/6 155/268/6
f 153/264/6 154/266/6 155/267/6
f 155/267/6 154/266/6 156/269/6
f 151/260/6 155/268/6 157/271/6
f 155/268/6 156/270/6 157/271/6
f 157/271/6 156/270/6 158/272/6
f 159/273/6 160/274/6 161/275/6
f 161/275/6 160/274/6 162/277/6
f 159/273/6 161/275/6 163/280/6
f 161/276/6 162/278/6 163/279/6
f 163/279/6 162/278/6 164/281/6
f 159/273/6 163/280/6 165/283/6
f 163/280/6 164/282/6 165/283/6
f 165/283/6 164/282/6 166/285/6
f 165/284/6 166/286/6 167/287/6
f 166/285/6 164/282/6 168/290/6
f 167/287/6 166/286/6 168/289/6
f 167/288/6 168/290/6 169/291/6
f 168/290/6 164/282/6 170/292/6
f 169/291/6 168/290/6 170/292/6
